HIERARCHY
ROOT Hips
{
    OFFSET 0.000000 0.000000 0.000000
    CHANNELS 6 Xposition Yposition Zposition Zrotation Xrotation Yrotation
    JOINT Spine
    {
        OFFSET -0.000000 0.084000 0.000000
        CHANNELS 3 Zrotation Xrotation Yrotation
        JOINT Spine1
        {
            OFFSET -0.000000 0.216247 0.000000
            CHANNELS 3 Zrotation Xrotation Yrotation
            JOINT Neck
            {
                OFFSET -0.000000 0.215359 0.019578
                CHANNELS 3 Zrotation Xrotation Yrotation
                JOINT Head
                {
                    OFFSET -0.000000 0.143414 -0.020488
                    CHANNELS 3 Zrotation Xrotation Yrotation
                    End Site
                    {
                        OFFSET -0.000000 0.204877 0.000000
                    }
                }
            }
            JOINT LeftShoulder
            {
                OFFSET 0.040109 0.191272 -0.003631
                CHANNELS 3 Zrotation Xrotation Yrotation
                JOINT LeftArm
                {
                    OFFSET 0.138349 0.000000 0.000000
                    CHANNELS 3 Zrotation Xrotation Yrotation
                    JOINT LeftForeArm
                    {
                        OFFSET 0.335349 0.000000 0.000000
                        CHANNELS 3 Zrotation Xrotation Yrotation
                        JOINT LeftHand
                        {
                            OFFSET 0.276368 0.000000 0.000000
                            CHANNELS 3 Zrotation Xrotation Yrotation
                            End Site
                            {
                                OFFSET 0.153658 0.000000 0.000000
                            }
                        }
                    }
                }
            }
            JOINT RightShoulder
            {
                OFFSET -0.041533 0.191272 -0.003631
                CHANNELS 3 Zrotation Xrotation Yrotation
                JOINT RightArm
                {
                    OFFSET -0.138349 0.000000 0.000000
                    CHANNELS 3 Zrotation Xrotation Yrotation
                    JOINT RightForeArm
                    {
                        OFFSET -0.335349 0.000000 0.000000
                        CHANNELS 3 Zrotation Xrotation Yrotation
                        JOINT RightHand
                        {
                            OFFSET -0.276368 0.000000 0.000000
                            CHANNELS 3 Zrotation Xrotation Yrotation
                            End Site
                            {
                                OFFSET -0.153658 0.000000 0.000000
                            }
                        }
                    }
                }
            }
        }
    }
    JOINT LeftUpLeg
    {
        OFFSET 0.102438 0.000000 0.000000
        CHANNELS 3 Zrotation Xrotation Yrotation
        JOINT LeftLeg
        {
            OFFSET -0.000000 -0.442852 0.000000
            CHANNELS 3 Zrotation Xrotation Yrotation
            JOINT LeftFoot
            {
                OFFSET -0.000000 -0.461647 0.000000
                CHANNELS 3 Zrotation Xrotation Yrotation
                JOINT LeftToeBase
                {
                    OFFSET -0.000000 -0.066585 0.153658
                    CHANNELS 3 Zrotation Xrotation Yrotation
                    End Site
                    {
                        OFFSET -0.000000 0.000000 0.040975
                    }
                }
            }
        }
    }
    JOINT RightUpLeg
    {
        OFFSET -0.102438 0.000000 0.000000
        CHANNELS 3 Zrotation Xrotation Yrotation
        JOINT RightLeg
        {
            OFFSET -0.000000 -0.442852 0.000000
            CHANNELS 3 Zrotation Xrotation Yrotation
            JOINT RightFoot
            {
                OFFSET -0.000000 -0.461647 0.000000
                CHANNELS 3 Zrotation Xrotation Yrotation
                JOINT RightToeBase
                {
                    OFFSET -0.000000 -0.066585 0.153658
                    CHANNELS 3 Zrotation Xrotation Yrotation
                    End Site
                    {
                        OFFSET -0.000000 0.000000 0.040975
                    }
                }
            }
        }
    }
}
MOTION
Frames:    9
Frame Time:    0.010000
-0.531093    0.501795    0.185598    24.075317    -30.948029    -14.515115    -63.129765    15.566504    26.501949    7.712488    28.767540    3.520040    -32.814411    24.434708    3.287589    21.997597    -17.790125    7.266038    4.321110    -6.214757    -15.278688    8.165411    16.275967    -47.846142    -16.929762    -48.257977    -82.509010    45.281857    -52.112720    21.326292    -22.126766    -9.873302    31.697388    8.096506    9.024303    18.985916    24.588747    -41.450474    88.743073    -42.916885    -52.795193    -20.228136    48.488480    -57.349503    60.736713    -105.053070    71.756310    82.584961    7.324700    -13.841140    13.255988    0.000000    0.000000    0.000000    71.318268    -70.075256    100.497665    122.027039    79.177444    -130.685349    -7.565093    -9.929750    -1.609466    0.000000    0.000000    0.000000    
-0.531293    0.501547    0.185523    23.771088    -30.840031    -14.534354    -62.818058    15.688934    26.373156    7.535637    28.708990    3.525239    -32.937984    24.336426    3.291337    22.052593    -17.702351    7.292548    4.271811    -6.221380    -15.267645    8.251438    16.349636    -47.932560    -16.941761    -48.264191    -82.514526    45.192772    -52.151741    21.275845    -22.153286    -9.888330    31.678719    8.193079    8.924756    18.954258    24.610132    -41.326126    88.686623    -42.936554    -52.696758    -20.204865    48.817673    -57.558414    60.784435    -105.325790    71.806625    82.919388    7.306759    -13.827764    13.235215    0.000000    0.000000    0.000000    71.476280    -70.185890    100.378128    121.813942    79.171791    -130.486420    -7.591138    -9.914109    -1.661635    0.000000    0.000000    0.000000    
-0.531482    0.501287    0.185432    23.465469    -30.725649    -14.556442    -62.499714    15.809294    26.238516    7.361383    28.652573    3.528793    -33.070759    24.219109    3.289513    22.119238    -17.596449    7.319176    4.220601    -6.231579    -15.248846    8.362191    16.451920    -48.029137    -16.946337    -48.306129    -82.532417    45.160423    -52.195244    21.294798    -22.186436    -9.906810    31.653498    8.289664    8.850679    18.930611    24.598812    -41.227592    88.634102    -42.939430    -52.599678    -20.186855    49.161747    -57.773060    60.838112    -105.592918    71.850426    83.256439    7.289178    -13.816269    13.206471    0.000000    0.000000    0.000000    71.655350    -70.293930    100.268547    121.620262    79.178108    -130.313675    -7.611039    -9.895449    -1.703019    0.000000    0.000000    0.000000    
-0.531664    0.501019    0.185331    23.157562    -30.607296    -14.580339    -62.176460    15.928525    26.099018    7.191821    28.596930    3.530176    -33.207466    24.086514    3.282435    22.187466    -17.473705    7.342623    4.168615    -6.233252    -15.224452    8.486779    16.559181    -48.125904    -16.949947    -48.364822    -82.561386    45.169334    -52.236595    21.363594    -22.225334    -9.927066    31.624790    8.384142    8.803256    18.915592    24.561323    -41.158222    88.588219    -42.966854    -52.497910    -20.208422    49.517365    -57.992321    60.896954    -105.859535    71.890648    83.598503    7.270308    -13.806562    13.173754    0.000000    0.000000    0.000000    71.848785    -70.400673    100.163841    121.441498    79.192665    -130.158981    -7.626496    -9.875767    -1.737656    0.000000    0.000000    0.000000    
-0.531842    0.500743    0.185223    22.846645    -30.486200    -14.606116    -61.848793    16.045216    25.955233    7.028765    28.544521    3.529225    -33.346943    23.935854    3.268204    22.254742    -17.328909    7.360492    4.116256    -6.222394    -15.194118    8.609468    16.645111    -48.215115    -16.957981    -48.411739    -82.593292    45.173203    -52.270996    21.431437    -22.270344    -9.951424    31.593601    8.479239    8.764523    18.907726    24.508610    -41.097279    88.543823    -43.026367    -52.380459    -20.265627    49.883621    -58.215122    60.962090    -106.128830    71.929688    83.946915    7.248711    -13.797699    13.139359    0.000000    0.000000    0.000000    72.053955    -70.505333    100.062386    121.277397    79.213745    -130.022675    -7.639232    -9.856206    -1.765318    0.000000    0.000000    0.000000    
-0.532016    0.500458    0.185109    22.532654    -30.362928    -14.633612    -61.516506    16.158407    25.807623    6.873542    28.498610    3.525926    -33.497623    23.759689    3.244360    22.332043    -17.151836    7.373191    4.061234    -6.206513    -15.157509    8.721536    16.704149    -48.295383    -16.973051    -48.432198    -82.622238    45.144497    -52.298805    21.462542    -22.322735    -9.983665    31.559048    8.576885    8.731685    18.906158    24.455542    -41.038105    88.509193    -43.134949    -52.250347    -20.362873    50.259365    -58.440296    61.030685    -106.397621    71.965576    84.299194    7.225102    -13.788848    13.100753    0.000000    0.000000    0.000000    72.269272    -70.607491    99.958237    121.141571    79.244919    -129.918747    -7.649726    -9.837505    -1.787557    0.000000    0.000000    0.000000    
-0.532187    0.500168    0.184992    22.216101    -30.238028    -14.661225    -61.179100    16.268429    25.656576    6.725335    28.460136    3.520533    -33.662365    23.560934    3.211840    22.425297    -16.944702    7.382880    4.002729    -6.196886    -15.116632    8.818686    16.748581    -48.369286    -16.990950    -48.429455    -82.644714    45.091881    -52.317142    21.462542    -22.380209    -10.022615    31.521151    8.676119    8.693766    18.910467    24.445318    -40.968662    88.509743    -43.378834    -52.108376    -20.551929    50.641888    -58.667732    61.096977    -106.659966    71.994827    84.647751    7.199702    -13.778708    13.058454    0.000000    0.000000    0.000000    72.491867    -70.708000    99.844597    121.049263    79.289833    -129.862183    -7.657407    -9.819563    -1.806769    0.000000    0.000000    0.000000    
-0.532356    0.499874    0.184873    21.896978    -30.111629    -14.687594    -60.836884    16.375483    25.502722    6.584290    28.426702    3.513032    -33.833847    23.358301    3.177145    22.526350    -16.728729    7.391777    3.941021    -6.198077    -15.076475    8.894347    16.783648    -48.434692    -17.012756    -48.401810    -82.660057    45.018894    -52.323502    21.435642    -22.438713    -10.061867    31.481909    8.773490    8.640628    18.919630    24.483475    -40.884033    88.541389    -43.748360    -51.956169    -20.820679    51.029537    -58.897629    61.157917    -106.913506    72.016327    84.987442    7.174217    -13.766668    13.013612    0.000000    0.000000    0.000000    72.719673    -70.808449    99.723068    120.992088    79.345024    -129.843216    -7.663097    -9.802489    -1.824328    0.000000    0.000000    0.000000    
-0.532524    0.499575    0.184750    21.574924    -29.983559    -14.712119    -60.490406    16.478979    25.346966    6.451639    28.394753    3.503407    -34.000702    23.178143    3.147929    22.620590    -16.533281    7.401330    3.877256    -6.206799    -15.043932    8.951775    16.816948    -48.487881    -17.035315    -48.357754    -82.668533    44.928574    -52.321785    21.388084    -22.494827    -10.094292    31.445375    8.861732    8.597070    18.931385    24.522673    -40.816406    88.579834    -44.127277    -51.815105    -21.097786    51.422806    -59.130184    61.214622    -107.159729    72.030861    85.320030    7.146774    -13.752652    12.964406    0.000000    0.000000    0.000000    72.950150    -70.910072    99.607414    120.920418    79.396164    -129.811478    -7.668012    -9.787954    -1.840392    0.000000    0.000000    0.000000    
